<svg width="24" height="24" viewBox="0 0 24 24" fill="none" xmlns="http://www.w3.org/2000/svg">
<g clip-path="url(#clip0_973_11848)">
<path d="M9.80218 12.617H4.30218M4.21753 12.9085L1.88261 19.8832C1.69917 20.4311 1.60746 20.7051 1.67328 20.8738C1.73044 21.0203 1.8532 21.1314 2.00468 21.1737C2.17912 21.2224 2.44259 21.1038 2.96952 20.8667L19.681 13.3465C20.1953 13.1151 20.4525 12.9993 20.532 12.8386C20.601 12.6989 20.601 12.535 20.532 12.3954C20.4525 12.2346 20.1953 12.1189 19.681 11.8874L2.96369 4.3647C2.43835 4.1283 2.17568 4.0101 2.00141 4.05858C1.85007 4.10069 1.72732 4.21148 1.66997 4.35772C1.60392 4.52612 1.69466 4.79949 1.87613 5.34625L4.21818 12.4025C4.24935 12.4964 4.26493 12.5434 4.27108 12.5914C4.27654 12.634 4.27649 12.6771 4.27092 12.7197C4.26464 12.7677 4.24894 12.8147 4.21753 12.9085Z" stroke="#A5AFB6" stroke-width="2" stroke-linecap="round" stroke-linejoin="round"/>
</g>
<defs>
<clipPath id="clip0_973_11848">
<rect width="24" height="24" fill="white"/>
</clipPath>
</defs>
</svg>
