<svg width="24" height="24" viewBox="0 0 24 24" fill="none" xmlns="http://www.w3.org/2000/svg">
<path d="M9.73716 12C11.9858 12 13.8087 10.1771 13.8087 7.92848C13.8087 5.67982 11.9858 3.85693 9.73716 3.85693C7.48851 3.85693 5.66562 5.67982 5.66562 7.92848C5.66562 10.1771 7.48851 12 9.73716 12Z" fill="#00C9EC"/>
<path d="M9.73716 14.7144C7.17604 14.7144 4.89975 16.1119 3.45724 18.2777C3.14123 18.7522 2.98322 18.9895 3.00141 19.2925C3.01558 19.5285 3.17026 19.8174 3.35881 19.96C3.60096 20.1431 3.93401 20.1431 4.6001 20.1431H14.8742C15.5403 20.1431 15.8734 20.1431 16.1155 19.96C16.3041 19.8174 16.4587 19.5285 16.4729 19.2925C16.4911 18.9895 16.3331 18.7522 16.0171 18.2777C14.5746 16.1119 12.2983 14.7144 9.73716 14.7144Z" fill="#00C9EC"/>
<path d="M17.4278 15.4716C18.7451 16.1333 19.8745 17.1953 20.6989 18.5232C20.8621 18.7862 20.9437 18.9177 20.972 19.0997C21.0293 19.4697 20.7763 19.9246 20.4317 20.071C20.2621 20.1431 20.0713 20.1431 19.6898 20.1431M15.6183 11.5768C16.9589 10.9106 17.8802 9.52711 17.8802 7.92848C17.8802 6.32984 16.9589 4.9464 15.6183 4.28016M13.8087 7.92848C13.8087 10.1771 11.9858 12 9.73716 12C7.48851 12 5.66562 10.1771 5.66562 7.92848C5.66562 5.67982 7.48851 3.85693 9.73716 3.85693C11.9858 3.85693 13.8087 5.67982 13.8087 7.92848ZM3.45724 18.2777C4.89975 16.1119 7.17604 14.7144 9.73716 14.7144C12.2983 14.7144 14.5746 16.1119 16.0171 18.2777C16.3331 18.7522 16.4911 18.9895 16.4729 19.2925C16.4587 19.5285 16.3041 19.8174 16.1155 19.96C15.8734 20.1431 15.5403 20.1431 14.8742 20.1431H4.6001C3.93401 20.1431 3.60096 20.1431 3.35881 19.96C3.17026 19.8174 3.01558 19.5285 3.00141 19.2925C2.98322 18.9895 3.14123 18.7522 3.45724 18.2777Z" stroke="#00C9EC" stroke-width="1.80957" stroke-linecap="round" stroke-linejoin="round"/>
</svg>
