<?xml version="1.0" encoding="utf-8"?><svg
  xmlns="http://www.w3.org/2000/svg"
  xmlns:xlink="http://www.w3.org/1999/xlink"
>
  <symbol fill="none" viewBox="0 0 24 24" id="calendar" xmlns="http://www.w3.org/2000/svg">
    <path
      stroke="currentColor"
      stroke-linecap="round"
      stroke-linejoin="round"
      stroke-width="1.5"
      d="M19 4H5a2 2 0 0 0-2 2v14a2 2 0 0 0 2 2h14a2 2 0 0 0 2-2V6a2 2 0 0 0-2-2M16 2v4M8 2v4M3 10h18"
    />
  </symbol>
  <symbol fill="none" viewBox="0 0 16 16" id="chevron-down" xmlns="http://www.w3.org/2000/svg">
    <path
      stroke="currentColor"
      stroke-linecap="round"
      stroke-linejoin="round"
      stroke-width="1.333"
      d="m4 6 4 4 4-4"
    />
  </symbol>
  <symbol fill="none" viewBox="0 0 16 16" id="chevron-up" xmlns="http://www.w3.org/2000/svg">
    <path
      stroke="currentColor"
      stroke-linecap="round"
      stroke-linejoin="round"
      stroke-width="1.333"
      d="M12 10 8 6l-4 4"
    />
  </symbol>
  <symbol fill="none" viewBox="0 0 24 24" id="congratulate" xmlns="http://www.w3.org/2000/svg">
    <g clip-path="url(#da)">
      <path
        fill="#ffdc2d"
        d="M2.599 22.259c-1.214.48-2.414-.721-1.934-1.934l5.903-14.92 10.95 10.95z"
      />
      <path fill="#00c9ec" d="m2.984 14.465 5.474 5.474-3.02 1.196-3.65-3.65z" />
      <path fill="#ff6f00" d="M5.374 8.425 14.5 17.55l-3.02 1.195-7.3-7.3z" />
      <path
        stroke="#ff6f00"
        stroke-width="1.49"
        d="M13.663 9.83c.589-1.606 5.03-5.129 10.104-3.852"
      />
      <path stroke="#ffdc2d" stroke-width="1.49" d="M10.661 7.405c-.438-1.655.4-4.98 3.42-6.157" />
      <path
        stroke="#00c9ec"
        stroke-linecap="round"
        stroke-linejoin="round"
        stroke-width="1.49"
        d="m16.316 12.835.702-.868a.15.15 0 0 1 .226-.007l.639.694a.15.15 0 0 0 .225-.007l.594-.733a.15.15 0 0 1 .225-.008l.64.694a.15.15 0 0 0 .225-.007l.702-.867"
      />
      <path
        fill="#00c9ec"
        d="m1.1 8.85.193.72 1.439-.386-.193-.72-.72.193zM.256 6.895l-.372.645c.635.367 1.028.609 1.216 1.31l.72-.193.72-.192C2.181 7.13 1.283 6.627.628 6.249z"
      />
      <circle cx="18.512" cy="19.561" r=".745" fill="#ff6f00" />
    </g>
    <defs>
      <clipPath id="da"><path fill="#fff" d="M0 0h24v24H0z" /></clipPath>
    </defs>
  </symbol>
  <symbol fill="none" viewBox="0 0 24 24" id="cowbell" xmlns="http://www.w3.org/2000/svg">
    <path
      stroke="#495058"
      stroke-linecap="round"
      stroke-linejoin="round"
      stroke-width="2"
      d="M18 8A6 6 0 1 0 6 8c0 7-3 9-3 9h18s-3-2-3-9M13.73 21a2 2 0 0 1-3.46 0"
    />
    <circle cx="17" cy="4" r="4" fill="#00c9ec" />
  </symbol>
  <symbol fill="none" viewBox="0 0 24 24" id="home" xmlns="http://www.w3.org/2000/svg">
    <path
      stroke="currentColor"
      stroke-linecap="round"
      stroke-linejoin="round"
      stroke-width="1.5"
      d="m3 9 9-7 9 7v11a2 2 0 0 1-2 2H5a2 2 0 0 1-2-2z"
    />
    <path
      stroke="currentColor"
      stroke-linecap="round"
      stroke-linejoin="round"
      stroke-width="1.5"
      d="M9 22V12h6v10"
    />
  </symbol>
  <symbol fill="none" viewBox="0 0 16 16" id="map-pin" xmlns="http://www.w3.org/2000/svg">
    <path
      stroke="currentColor"
      stroke-linecap="round"
      stroke-linejoin="round"
      stroke-width="1.333"
      d="M14 6.667c0 4.666-6 8.666-6 8.666s-6-4-6-8.667a6 6 0 0 1 12 0"
    />
    <path
      stroke="currentColor"
      stroke-linecap="round"
      stroke-linejoin="round"
      stroke-width="1.333"
      d="M8 8.667a2 2 0 1 0 0-4 2 2 0 0 0 0 4"
    />
  </symbol>
  <symbol fill="none" viewBox="0 0 24 24" id="message" xmlns="http://www.w3.org/2000/svg">
    <path
      stroke="currentColor"
      stroke-linecap="round"
      stroke-linejoin="round"
      stroke-width="1.5"
      d="M21 15a2 2 0 0 1-2 2H7l-4 4V5a2 2 0 0 1 2-2h14a2 2 0 0 1 2 2z"
    />
  </symbol>
  <symbol fill="none" viewBox="0 0 24 24" id="plus" xmlns="http://www.w3.org/2000/svg">
    <path
      stroke="#000"
      stroke-linecap="round"
      stroke-linejoin="round"
      stroke-width="2"
      d="M12 5v14M5 12h14"
    />
  </symbol>
  <symbol fill="none" viewBox="0 0 24 24" id="plus-circle" xmlns="http://www.w3.org/2000/svg">
    <g clip-path="url(#ia)">
      <path
        fill="#00c9ec"
        d="M12 24c6.627 0 12-5.373 12-12S18.627 0 12 0 0 5.373 0 12s5.373 12 12 12"
      />
      <path
        stroke="#fff"
        stroke-linecap="round"
        stroke-linejoin="round"
        stroke-width="2"
        d="M12 8v8M8 12h8"
      />
    </g>
    <defs>
      <clipPath id="ia"><path fill="#fff" d="M0 0h24v24H0z" /></clipPath>
    </defs>
  </symbol>
  <symbol fill="none" viewBox="0 0 24 24" id="search" xmlns="http://www.w3.org/2000/svg">
    <path
      stroke="currentColor"
      stroke-linecap="round"
      stroke-linejoin="round"
      stroke-width="2"
      d="M11 19a8 8 0 1 0 0-16 8 8 0 0 0 0 16M21 21l-4.35-4.35"
    />
  </symbol>
  <symbol fill="none" viewBox="0 0 24 24" id="unread-false" xmlns="http://www.w3.org/2000/svg">
    <path
      stroke="currentColor"
      stroke-linecap="round"
      stroke-linejoin="round"
      stroke-width="2"
      d="M18 8A6 6 0 1 0 6 8c0 7-3 9-3 9h18s-3-2-3-9M13.73 21a2 2 0 0 1-3.46 0"
    />
  </symbol>
  <symbol fill="none" viewBox="0 0 24 24" id="unread-true" xmlns="http://www.w3.org/2000/svg">
    <path
      stroke="currentColor"
      stroke-linecap="round"
      stroke-linejoin="round"
      stroke-width="2"
      d="M18 8A6 6 0 1 0 6 8c0 7-3 9-3 9h18s-3-2-3-9M13.73 21a2 2 0 0 1-3.46 0"
    />
    <circle cx="17" cy="4" r="4" fill="currentColor" />
  </symbol>
  <symbol fill="none" viewBox="0 0 24 24" id="user" xmlns="http://www.w3.org/2000/svg">
    <path
      stroke="currentColor"
      stroke-linecap="round"
      stroke-linejoin="round"
      stroke-width="1.5"
      d="M20 21v-2a4 4 0 0 0-4-4H8a4 4 0 0 0-4 4v2M12 11a4 4 0 1 0 0-8 4 4 0 0 0 0 8"
    />
  </symbol>
  <symbol fill="none" viewBox="0 0 16 16" id="users" xmlns="http://www.w3.org/2000/svg">
    <path
      stroke="currentColor"
      stroke-linecap="round"
      stroke-linejoin="round"
      stroke-width="1.333"
      d="M11.333 14v-1.333A2.667 2.667 0 0 0 8.667 10H3.333a2.667 2.667 0 0 0-2.666 2.667V14M6 7.333A2.667 2.667 0 1 0 6 2a2.667 2.667 0 0 0 0 5.333M15.333 14v-1.334a2.67 2.67 0 0 0-2-2.58M10.667 2.086a2.666 2.666 0 0 1 0 5.167"
    />
  </symbol>
  <symbol fill="none" viewBox="0 0 24 24" id="visibility-false" xmlns="http://www.w3.org/2000/svg">
    <path
      fill="#7c868f"
      d="M15.175 8.325a4.5 4.5 0 0 1 1.063 1.65q.337.925.237 1.9 0 .375-.275.638a.9.9 0 0 1-.65.262.87.87 0 0 1-.638-.262.87.87 0 0 1-.262-.638q.124-.65-.075-1.25A2.6 2.6 0 0 0 13.95 9.6a2.8 2.8 0 0 0-1.025-.65q-.6-.225-1.275-.1a.85.85 0 0 1-.638-.275.9.9 0 0 1-.262-.65q0-.375.262-.637a.87.87 0 0 1 .638-.263 4.14 4.14 0 0 1 1.875.238 4.5 4.5 0 0 1 1.65 1.062M12 6q-.475 0-.925.038-.45.037-.9.137a1.08 1.08 0 0 1-.763-.125 1.02 1.02 0 0 1-.462-.6.94.94 0 0 1 .088-.775q.211-.375.612-.45.574-.125 1.162-.175T12 4q3.424 0 6.262 1.8t4.338 4.85a1.9 1.9 0 0 1 .2.85q0 .225-.038.438a1.5 1.5 0 0 1-.137.412q-.45 1-1.113 1.875a11.6 11.6 0 0 1-1.462 1.6.84.84 0 0 1-.7.225.91.91 0 0 1-.65-.4 1.1 1.1 0 0 1-.212-.762q.037-.413.337-.688.6-.575 1.1-1.25t.875-1.45a9.77 9.77 0 0 0-3.613-4.012A9.55 9.55 0 0 0 12 6m0 13q-3.35 0-6.125-1.812A13 13 0 0 1 1.5 12.425a1.6 1.6 0 0 1-.187-.437 2 2 0 0 1-.063-.488q0-.25.05-.475t.175-.45a13.6 13.6 0 0 1 1.163-1.912Q3.3 7.75 4.15 7L2.075 4.9a.97.97 0 0 1-.263-.712A.98.98 0 0 1 2.1 3.5a.95.95 0 0 1 .7-.275q.425 0 .7.275l17 17q.275.275.288.688a.93.93 0 0 1-.288.712.95.95 0 0 1-.7.275.95.95 0 0 1-.7-.275l-3.5-3.45A12 12 0 0 1 12 19M5.55 8.4q-.725.65-1.325 1.425A9 9 0 0 0 3.2 11.5a9.77 9.77 0 0 0 3.613 4.013A9.54 9.54 0 0 0 12 17q.5 0 .975-.062.475-.063.975-.138l-.9-.95q-.274.075-.525.113A3.5 3.5 0 0 1 12 16q-1.875 0-3.187-1.312Q7.499 13.375 7.5 11.5q0-.274.037-.525.038-.25.113-.525z"
    />
  </symbol>
  <symbol fill="none" viewBox="0 0 24 24" id="visibility-true" xmlns="http://www.w3.org/2000/svg">
    <path
      fill="#7c868f"
      d="M12 16q1.875 0 3.187-1.312Q16.5 13.375 16.5 11.5t-1.313-3.187T12 7 8.812 8.313 7.5 11.5t1.312 3.188T12 16m0-1.8q-1.125 0-1.913-.787A2.6 2.6 0 0 1 9.3 11.5q0-1.125.787-1.912A2.6 2.6 0 0 1 12 8.8q1.125 0 1.912.787.788.788.788 1.913t-.788 1.912A2.6 2.6 0 0 1 12 14.2m0 4.8q-3.349 0-6.113-1.8-2.761-1.8-4.362-4.75a1.907 1.907 0 0 1-.187-1.437q.062-.238.187-.463 1.6-2.95 4.362-4.75T12 4t6.112 1.8 4.363 4.75a1.906 1.906 0 0 1 .188 1.438 2 2 0 0 1-.188.462q-1.6 2.95-4.363 4.75Q15.35 19 12 19m0-2a9.54 9.54 0 0 0 5.187-1.488A9.77 9.77 0 0 0 20.8 11.5a9.77 9.77 0 0 0-3.613-4.012A9.55 9.55 0 0 0 12 6a9.55 9.55 0 0 0-5.188 1.487A9.77 9.77 0 0 0 3.2 11.5a9.77 9.77 0 0 0 3.612 4.012A9.54 9.54 0 0 0 12 17"
    />
  </symbol>
  <symbol fill="none" viewBox="0 0 92 40" id="wego-logo" xmlns="http://www.w3.org/2000/svg">
    <path
      stroke="#000"
      stroke-linecap="round"
      stroke-linejoin="round"
      stroke-width="2"
      d="m12 14 4.378 12 4.865-12 4.379 12L30 14"
    />
    <circle cx="75" cy="20" r="7" stroke="#000" stroke-width="2" />
    <path
      stroke="#000"
      stroke-linecap="round"
      stroke-linejoin="round"
      stroke-width="2"
      d="M63.7 14.615a7.167 7.167 0 1 0 0 11.106v-4.554"
    />
    <circle cx="41" cy="20" r="7" stroke="#00c9ec" stroke-width="2" />
    <circle cx="40" cy="21" r="1" fill="#00c9ec" />
    <circle cx="44" cy="21" r="1" fill="#00c9ec" />
    <path stroke="#00c9ec" stroke-width="2" d="m34.5 19 1.639-.745a24 24 0 0 1 8.09-2.08L46.5 16" />
    <path
      stroke="#00c9ec"
      stroke-linecap="round"
      stroke-linejoin="round"
      stroke-width="2"
      d="m34 21-2.049 2.342c-.566.646-.106 1.658.753 1.658H35.5"
    />
  </symbol>
  <symbol fill="none" viewBox="0 0 20 20" id="x" xmlns="http://www.w3.org/2000/svg">
    <path
      stroke="currentColor"
      stroke-linecap="round"
      stroke-linejoin="round"
      stroke-width="1.33"
      d="M15 5 5 15M5 5l10 10"
    />
  </symbol>
</svg>
