<svg width="40" height="40" viewBox="0 0 40 40" fill="none" xmlns="http://www.w3.org/2000/svg">
<path d="M25 16C25 14.4087 24.3679 12.8826 23.2426 11.7574C22.1174 10.6321 20.5913 10 19 10C17.4087 10 15.8826 10.6321 14.7574 11.7574C13.6321 12.8826 13 14.4087 13 16C13 23 10 25 10 25H28C28 25 25 23 25 16Z" stroke="#495058" stroke-width="2" stroke-linecap="round" stroke-linejoin="round"/>
<path d="M20.73 29C20.5542 29.3031 20.3019 29.5547 19.9982 29.7295C19.6946 29.9044 19.3504 29.9965 19 29.9965C18.6496 29.9965 18.3054 29.9044 18.0018 29.7295C17.6982 29.5547 17.4458 29.3031 17.27 29" stroke="#495058" stroke-width="2" stroke-linecap="round" stroke-linejoin="round"/>
<rect x="18.5" y="4" width="14" height="14" rx="7" fill="#00C9EC"/>
<path d="M23.5127 15L26.5791 9.04297V8.99414H23.0244V7.92969H27.8975V9.01367L24.8311 15H23.5127Z" fill="white"/>
</svg>
