<svg width="24" height="24" viewBox="0 0 24 24" fill="none" xmlns="http://www.w3.org/2000/svg">
<g clip-path="url(#clip0_552_3086)">
<path d="M2.59879 22.2586C1.38548 22.7386 0.184809 21.538 0.66487 20.3246L6.56809 5.40477L17.5187 16.3554L2.59879 22.2586Z" fill="#FFDC2D"/>
<path d="M2.98354 14.4648L8.4581 19.9394L5.43839 21.1347L1.78823 17.4845L2.98354 14.4648Z" fill="#00C9EC"/>
<path d="M5.37439 8.42549L14.4991 17.5502L11.4794 18.7455L4.17908 11.4452L5.37439 8.42549Z" fill="#FF6F00"/>
<path d="M13.6626 9.83087C14.2518 8.22384 18.6926 4.70126 23.7665 5.97807" stroke="#FF6F00" stroke-width="1.49019"/>
<path d="M10.661 7.40454C10.2233 5.74981 11.0609 2.4243 14.0818 1.24751" stroke="#FFDC2D" stroke-width="1.49019"/>
<path d="M16.3163 12.8348L17.0184 11.9675C17.0756 11.8968 17.1822 11.8934 17.2438 11.9603L17.8829 12.654C17.9445 12.7209 18.0511 12.7175 18.1083 12.6468L18.7018 11.9136C18.759 11.843 18.8656 11.8396 18.9273 11.9064L19.5664 12.6002C19.628 12.6671 19.7346 12.6636 19.7918 12.593L20.4938 11.7257" stroke="#00C9EC" stroke-width="1.49019" stroke-linecap="round" stroke-linejoin="round"/>
<path d="M1.09966 8.85028L1.29251 9.56999L2.73191 9.1843L2.53907 8.4646L1.81937 8.65744L1.09966 8.85028ZM0.256104 6.89453L-0.116443 7.5398C0.51924 7.90681 0.911729 8.14891 1.09966 8.85028L1.81937 8.65744L2.53907 8.4646C2.18156 7.13034 1.28351 6.62734 0.62865 6.24926L0.256104 6.89453Z" fill="#00C9EC"/>
<circle cx="18.5117" cy="19.561" r="0.745093" fill="#FF6F00"/>
</g>
<defs>
<clipPath id="clip0_552_3086">
<rect width="24" height="24" fill="white"/>
</clipPath>
</defs>
</svg>
